<svg width="24" height="24" viewBox="0 0 0.96 0.96" xmlns="http://www.w3.org/2000/svg"><g fill="none" fill-rule="evenodd"><path d="M0 0h.96v.96H0z"/><path d="M.643 0a.15.15 0 0 1 .124.066l.107.159A.15.15 0 0 1 .9.309V.69a.15.15 0 0 1-.13.149.18.18 0 0 1-.164.121H.24A.18.18 0 0 1 .06.787V.3A.18.18 0 0 1 .181.13.15.15 0 0 1 .33 0zM.12.294V.78A.12.12 0 0 0 .234.9H.6A.12.12 0 0 0 .704.84H.33A.15.15 0 0 1 .18.69V.196a.12.12 0 0 0-.06.098M.643.06H.33a.09.09 0 0 0-.09.085V.69a.09.09 0 0 0 .085.09H.75A.09.09 0 0 0 .84.695V.309A.1.1 0 0 0 .828.264L.824.258.717.099a.09.09 0 0 0-.069-.04z" fill="currentColor" fill-rule="nonzero"/></g></svg>