<svg width="24" height="24" fill="inherit" viewBox="0 0 0.48 0.48" xmlns="http://www.w3.org/2000/svg"><path d="M.24 0a.1.1 0 0 0-.063.025.1.1 0 0 0-.019.026.022.022 0 0 0 .041.019L.208.058A.05.05 0 0 1 .24.045a.05.05 0 0 1 .032.012.04.04 0 0 1 .013.028v.103a.022.022 0 0 0 .045 0V.086A.08.08 0 0 0 .303.025.1.1 0 0 0 .24 0"/><path d="M.15.182.037.068A.022.022 0 0 1 .069.036l.375.375a.022.022 0 1 1-.032.032L.341.372a.2.2 0 0 1-.078.032v.032h.052a.022.022 0 0 1 0 .045h-.15a.022.022 0 0 1 0-.045h.052V.404A.17.17 0 0 1 .123.359.16.16 0 0 1 .075.244V.202a.022.022 0 0 1 .045 0v.042a.11.11 0 0 0 .035.082A.12.12 0 0 0 .24.36.12.12 0 0 0 .308.34L.286.318A.1.1 0 0 1 .24.33.1.1 0 0 1 .177.305.08.08 0 0 1 .15.244zm.045.045v.017q0 .016.013.028T.24.284L.252.283z" clip-rule="evenodd"/><path d="M.361.202a.022.022 0 0 1 .045 0v.042L.404.268A.022.022 0 1 1 .36.261L.361.244z"/></svg>