<svg width="24" height="24" fill="inherit" viewBox="0 0 0.48 0.48" xmlns="http://www.w3.org/2000/svg"><path fill-rule="evenodd" d="M.24 0a.1.1 0 0 0-.063.025.08.08 0 0 0-.027.061v.158q0 .036.027.061A.1.1 0 0 0 .24.33.1.1 0 0 0 .303.305.08.08 0 0 0 .33.244V.086A.08.08 0 0 0 .303.025.1.1 0 0 0 .24 0M.208.057A.05.05 0 0 1 .24.045a.05.05 0 0 1 .032.012.04.04 0 0 1 .013.028v.159a.04.04 0 0 1-.013.028.05.05 0 0 1-.032.013.05.05 0 0 1-.032-.012.04.04 0 0 1-.013-.028V.086A.04.04 0 0 1 .208.058z" clip-rule="evenodd"/><path d="M.12.202a.022.022 0 0 0-.045 0v.042a.16.16 0 0 0 .049.114.17.17 0 0 0 .093.045v.032H.165a.022.022 0 0 0 0 .045h.15a.022.022 0 0 0 0-.045H.263V.403A.17.17 0 0 0 .357.358.16.16 0 0 0 .405.244V.202a.022.022 0 0 0-.045 0v.042a.11.11 0 0 1-.035.082A.12.12 0 0 1 .24.36.12.12 0 0 1 .155.326.11.11 0 0 1 .12.244z"/></svg>